<svg id="Layer_1" data-name="Layer 1" xmlns="http://www.w3.org/2000/svg" xmlns:xlink="http://www.w3.org/1999/xlink" viewBox="0 0 453.22 125.27"><defs><style>.cls-1{mask:url(#mask);filter:url(#luminosity-noclip-2);}.cls-2,.cls-4,.cls-6{fill-rule:evenodd;}.cls-2{mix-blend-mode:multiply;fill:url(#linear-gradient);}.cls-3,.cls-4{fill:#0e57cc;}.cls-5{mask:url(#mask-2);}.cls-6{fill:#b1bbc9;}.cls-7{filter:url(#luminosity-noclip);}</style><filter id="luminosity-noclip" x="0" y="-8286.51" width="83.29" height="32766" filterUnits="userSpaceOnUse" color-interpolation-filters="sRGB"><feFlood flood-color="#fff" result="bg"/><feBlend in="SourceGraphic" in2="bg"/></filter><mask id="mask" x="0" y="-8286.51" width="83.29" height="32766" maskUnits="userSpaceOnUse"><g class="cls-7"/></mask><linearGradient id="linear-gradient" x1="-38.72" y1="96.56" x2="82.5" y2="21.29" gradientUnits="userSpaceOnUse"><stop offset="0" stop-color="#666"/><stop offset="0.24" stop-color="#525252"/><stop offset="0.73" stop-color="#1f1f1f"/><stop offset="1"/></linearGradient><filter id="luminosity-noclip-2" x="0" y="0" width="83.29" height="89.21" filterUnits="userSpaceOnUse" color-interpolation-filters="sRGB"><feFlood flood-color="#fff" result="bg"/><feBlend in="SourceGraphic" in2="bg"/></filter><mask id="mask-2" x="0" y="0" width="83.29" height="89.21" maskUnits="userSpaceOnUse"><g class="cls-1"><path class="cls-2" d="M80.7,0c.1.34.19.69.3,1a61.06,61.06,0,0,1,2.29,15.32V17c0,16.37-7.41,30.74-21,39.25C45,67.11,29.39,62.49,14.26,73.32,9,76.2,4.14,81,0,89.21c.58-8.94,2.8-17.64,7.85-25.15C15.27,53,27,47.24,38.79,42.11l0-.06C48.08,38,57.45,34.42,65,29l-.36.36C74.33,22.26,80.4,12.71,80.7,0Z"/></g></mask></defs><g id="Logo"><path class="cls-3" d="M156.66,42.16v9.29H126.09V58h29.42v9.29H126.09v6.54h30.57v9.29H114.22V42.16Z"/><path class="cls-3" d="M207.7,46.2q4.35,4,4.36,11.16T207.7,68.57q-4.37,4.05-11.81,4H175.58v10.5H163.71V42.16h32.18Q203.35,42.16,207.7,46.2ZM192.62,62.52a21,21,0,0,0,3.64-.26,4.22,4.22,0,0,0,2.41-1.37,5.2,5.2,0,0,0,1-3.53,5.08,5.08,0,0,0-1-3.47,4.18,4.18,0,0,0-2.41-1.38,21,21,0,0,0-3.64-.26h-17V62.52Z"/><path class="cls-3" d="M218.48,42.16h11.87v41H218.48Z"/><path class="cls-3" d="M243.34,46.55Q249.91,41,262.24,41q11.13,0,17.52,4.51a16.94,16.94,0,0,1,7.31,12.53H274.46a7.7,7.7,0,0,0-3.73-5q-3.11-2-8.49-2-6.48,0-9.75,3t-3.27,8.49q0,5.51,3.3,8.54t9.72,3q5.38,0,8.49-2a7.8,7.8,0,0,0,3.73-5.07h12.61a17.1,17.1,0,0,1-7.31,12.62q-6.39,4.53-17.52,4.53-12.33,0-18.9-5.57t-6.56-16.11Q236.78,52.08,243.34,46.55Z"/><path class="cls-3" d="M321.43,80.3,343.51,43h3.84L323.43,83.11h-4.07L295.51,43h3.78Z"/><path class="cls-3" d="M390.59,44.63a12.59,12.59,0,0,1,5.51,4.79,13.63,13.63,0,0,1,1.95,7.37,13.65,13.65,0,0,1-1.95,7.37A12.76,12.76,0,0,1,390.59,69a19.12,19.12,0,0,1-8.31,1.69H357.73V83.11h-3.32V43h27.87A19.41,19.41,0,0,1,390.59,44.63Zm-9.23,22.94A16.36,16.36,0,0,0,390.85,65q3.7-2.56,3.7-8.23t-3.7-8.23A16.28,16.28,0,0,0,381.36,46H357.73V67.57Z"/><path class="cls-3" d="M449.9,79.9V43h3.32V83.11h-4.7L410.21,46.18V83.11h-3.33V43h4.71Z"/><path class="cls-4" d="M77.59.82c-20.6,6-35.77,22-38.8,41.29C20.16,50.17,1.92,59.86,0,89.21,9.57,70.15,22.7,69.71,37.45,68c1.22-.14,2.45-.3,3.67-.46l.67-.11c.09.21.16.42.25.63.49,1.25,1,2.47,1.53,3.67,5.84,13.54,11.87,25.1.21,42.8,24.46-16.34,23.75-37,21.39-57.15C81.16,44.45,87.26,21.82,80.7,0q-.4,17.88-16.08,29.36Q78.13,15.53,77.59.82Z"/><g class="cls-5"><path class="cls-6" d="M80.7,0c.1.34.19.69.3,1a61.06,61.06,0,0,1,2.29,15.32V17c0,16.37-7.41,30.74-21,39.25C45,67.11,29.39,62.49,14.26,73.32,9,76.2,4.14,81,0,89.21c.58-8.94,2.8-17.64,7.85-25.15C15.27,53,27,47.24,38.79,42.11l0-.06C48.08,38,57.45,34.42,65,29l-.36.36C74.33,22.26,80.4,12.71,80.7,0Z"/></g><path class="cls-4" d="M9.57,125.27c.37-6.31,1.76-17.58,5.52-27.35C26.56,68.15,50.54,82,30.49,106.81c-6.58,8.14-15.65,15-20.92,18.46Z"/></g></svg>